<svg width="479" height="78" viewBox="0 0 479 78" fill="none" xmlns="http://www.w3.org/2000/svg">
    <path d="M0 32.7774V41.4458L36.475 59.1835V49.3393L9.89632 37.0068L36.475 24.7836V15.0032L0 32.7774Z" fill="black"/>
    <path d="M313.408 51.3811H297.492V67.0132H313.408V51.3811Z" fill="#E60208"/>
    <path d="M322.52 44.3261V7.5563H332.498V44.2258C332.498 53.8148 337.232 58.8462 344.976 58.8462C352.719 58.8462 357.353 53.9971 357.353 44.5813V7.5563H367.258V43.9979C367.258 59.9674 358.402 67.943 344.802 67.943C331.203 67.943 322.52 59.8671 322.52 44.3078" fill="black"/>
    <path d="M390.179 7.5472H380.201V66.995H390.179V7.5472Z" fill="black"/>
    <path d="M428.305 0H436.733L403.87 77.1217H395.442L428.305 0Z" fill="black"/>
    <path d="M442.616 49.4305L469.195 37.2073L442.616 24.8839V15.0306L479 32.7865V41.4549L442.616 59.2108V49.4396V49.4305Z" fill="black"/>
    <path d="M95.0047 7.76595L75.1664 44.1255V66.8127H61.6582V44.1255L41.829 7.76595H57.1889L68.4168 30.4531L79.6448 7.76595H95.0047Z" fill="#E60208"/>
    <path d="M131.835 66.8218L128.67 57.5428H105.941L102.986 66.8218H88.2095L108.303 7.76595H125.524L145.654 66.8127H131.835V66.8218ZM110.036 44.8821H124.356L116.959 23.2067L110.036 44.8821Z" fill="#E60208"/>
    <path d="M199.34 66.8218H183.98L165.072 39.5407V66.8218H151.564V7.76595H165.072V33.4063L183.132 7.76595H198.492L178.572 36.5328L199.34 66.8218Z" fill="#E60208"/>
    <path d="M241.461 62.5195C237.183 66.1746 231.729 68.0068 225.089 68.0068C218.449 68.0068 212.985 66.1838 208.717 62.5195C204.439 58.8644 202.304 53.9424 202.304 47.7533V7.76595H215.813V46.5684C215.813 52.0829 218.905 54.8356 225.098 54.8356C231.291 54.8356 234.383 52.0829 234.383 46.5684V7.76595H247.891V47.7533C247.891 53.9424 245.748 58.8644 241.479 62.5195H241.461Z" fill="#E60208"/>
    <path d="M298.103 7.76595V20.7548H282.907V66.8127H269.399V20.7639H254.203V7.77506H298.094L298.103 7.76595Z" fill="#E60208"/>
</svg>
